<svg xmlns="http://www.w3.org/2000/svg" width="185.944" height="185.943" viewBox="0 0 185.944 185.943">
  <g id="Group_225" data-name="Group 225" transform="translate(-13162.29 20399)">
    <path id="Path_74" data-name="Path 74" d="M248.409,31.949H200.462a21.114,21.114,0,0,0-21.114,21.112v47.946a21.114,21.114,0,0,0,21.114,21.114h47.947a21.113,21.113,0,0,0,21.113-21.114V53.061a21.112,21.112,0,0,0-21.113-21.112m-23.974,74.31A29.224,29.224,0,1,1,253.66,77.034a29.224,29.224,0,0,1-29.224,29.226M253.66,55.731a7.921,7.921,0,1,1,7.921-7.92,7.92,7.92,0,0,1-7.921,7.92" transform="translate(13031.027 -20383.063)" fill="#fff"/>
    <path id="Path_75" data-name="Path 75" d="M215.619,49.623a18.6,18.6,0,1,0,18.6,18.6,18.6,18.6,0,0,0-18.6-18.6" transform="translate(13039.845 -20374.246)" fill="#fff"/>
    <path id="Path_76" data-name="Path 76" d="M314.806,0H165.67a18.405,18.405,0,0,0-18.4,18.406V167.539a18.4,18.4,0,0,0,18.4,18.406H314.806a18.4,18.4,0,0,0,18.4-18.406V18.406A18.4,18.4,0,0,0,314.806,0M296.368,116.745A32.154,32.154,0,0,1,264.212,148.9H216.664a32.155,32.155,0,0,1-32.156-32.156V69.2a32.156,32.156,0,0,1,32.156-32.156h47.547A32.155,32.155,0,0,1,296.368,69.2Z" transform="translate(13015.024 -20399)" fill="#fff"/>
  </g>
</svg>
