<svg xmlns="http://www.w3.org/2000/svg" width="185.944" height="185.943" viewBox="0 0 185.944 185.943">
  <g id="Group_224" data-name="Group 224" transform="translate(-13432.837 20399)">
    <path id="Path_77" data-name="Path 77" d="M167.539,0H18.4A18.4,18.4,0,0,0,0,18.4V167.54a18.4,18.4,0,0,0,18.4,18.4H167.539a18.405,18.405,0,0,0,18.406-18.4V18.4A18.4,18.4,0,0,0,167.539,0M145.1,63.911a35.038,35.038,0,0,0-12.818-2.666q-17.021,0-17.021,18.867V92.827H141.1v24.713h-25.84v65.652l-.057.013v2.74H82.145v-68.4H63.174V92.827H82.145V78.267q0-19.38,12.611-30.967t33.12-11.587q10.459,0,17.227,2.155Z" transform="translate(13432.837 -20399)" fill="#fff"/>
  </g>
</svg>
