<svg xmlns="http://www.w3.org/2000/svg" width="185.944" height="185.943" viewBox="0 0 185.944 185.943">
  <g id="Group_223" data-name="Group 223" transform="translate(-13699.289 20399)">
    <path id="Path_73" data-name="Path 73" d="M462.072,0H312.938a18.4,18.4,0,0,0-18.406,18.4V167.54a18.405,18.405,0,0,0,18.406,18.4H462.072a18.4,18.4,0,0,0,18.4-18.4V18.4A18.4,18.4,0,0,0,462.072,0M356.73,147.288H335.246V73.493H356.73Zm-1.6-89.51a12.822,12.822,0,0,1-9.007,3.237,12.656,12.656,0,0,1-8.942-3.27,10.554,10.554,0,0,1-3.536-8.073,10.24,10.24,0,0,1,3.5-8.04A14.555,14.555,0,0,1,355.2,41.7a10.343,10.343,0,0,1,3.47,7.974,10.525,10.525,0,0,1-3.537,8.106m86.638,89.51H420.348V106.12q0-17.88-12.878-17.882a12.866,12.866,0,0,0-10.208,4.771q-4.069,4.773-4.071,12.178v42.1H371.64V73.493h21.55V85.235h.269q8.073-13.543,23.753-13.543,24.553,0,24.554,30.425Z" transform="translate(13404.757 -20399)" fill="#fff"/>
  </g>
</svg>
